<svg width="836" height="212" xmlns="http://www.w3.org/2000/svg" xmlns:xlink="http://www.w3.org/1999/xlink" overflow="hidden"><defs><clipPath id="clip0"><rect x="40" y="141" width="836" height="212"/></clipPath></defs><g clip-path="url(#clip0)" transform="translate(-40 -141)"><rect x="60.5001" y="186.5" width="430" height="120" stroke="#3FC3FC" stroke-width="1.33333" stroke-miterlimit="8" fill="#3FC3FC"/><path d="M722.5 185.732 727.25 185.732 727.25 308.268 722.5 308.268ZM732 185.732 741.5 185.732 741.5 308.268 732 308.268ZM746.25 185.732 789.733 185.732 789.733 143.5 874.5 247 789.733 350.5 789.733 308.268 746.25 308.268Z" stroke="#3FC3FC" stroke-width="1.33333" stroke-miterlimit="8" fill="#3FC3FC" fill-rule="evenodd"/><rect x="756" y="184" width="5" height="125" fill="#2980B9"/><rect x="727" y="184" width="5" height="125" fill="#2980B9"/><rect x="740" y="184" width="5" height="125" fill="#2980B9"/><path d="M203.101 215.686 203.101 242.702 213.622 242.702C221.198 242.702 226.264 242.204 228.818 241.208 231.373 240.213 233.375 238.654 234.825 236.533 236.276 234.411 237.001 231.943 237.001 229.129 237.001 225.666 235.983 222.808 233.949 220.557 231.914 218.306 229.338 216.899 226.221 216.336 223.926 215.903 219.315 215.686 212.388 215.686ZM122.221 214.388C114.298 214.388 107.912 217.104 103.063 222.538 98.2139 227.971 95.7894 236.165 95.7894 247.118 95.7894 257.898 98.2789 266.07 103.258 271.633 108.237 277.197 114.558 279.978 122.221 279.978 129.884 279.978 136.172 277.218 141.086 271.698 146 266.178 148.457 257.898 148.457 246.858 148.457 235.948 146.065 227.809 141.281 222.44 136.497 217.072 130.143 214.388 122.221 214.388ZM390.619 199.581 419.388 199.581 436.662 264.522 453.742 199.581 482.576 199.581 482.576 294.785 464.717 294.785 464.717 219.843 445.819 294.785 427.311 294.785 408.478 219.843 408.478 294.785 390.619 294.785ZM353.294 199.581 372.517 199.581 372.517 294.785 353.294 294.785ZM266.06 199.581 341.717 199.581 341.717 215.686 313.532 215.686 313.532 294.785 294.309 294.785 294.309 215.686 266.06 215.686ZM183.879 199.581 214.726 199.581C226.415 199.581 234.035 200.057 237.585 201.01 243.04 202.438 247.608 205.545 251.288 210.329 254.968 215.113 256.808 221.293 256.808 228.869 256.808 234.714 255.747 239.628 253.626 243.611 251.504 247.594 248.809 250.722 245.541 252.995 242.272 255.268 238.949 256.773 235.572 257.509 230.983 258.418 224.337 258.872 215.635 258.872L203.101 258.872 203.101 294.785 183.879 294.785ZM122.026 197.957C136.053 197.957 147.277 202.308 155.698 211.011 164.119 219.713 168.329 231.813 168.329 247.313 168.329 262.682 164.151 274.707 155.795 283.388 147.44 292.068 136.27 296.409 122.286 296.409 108.128 296.409 96.8718 292.09 88.516 283.453 80.1602 274.816 75.9823 262.92 75.9823 247.767 75.9823 238.07 77.4327 229.93 80.3334 223.349 82.4981 218.501 85.4529 214.149 89.1979 210.296 92.9428 206.443 97.045 203.586 101.504 201.724 107.436 199.213 114.276 197.957 122.026 197.957Z" stroke="#3FC3FC" stroke-width="3" stroke-linejoin="round" stroke-miterlimit="10" fill="#FFFFFF" fill-rule="evenodd"/><text fill="#000000" fill-opacity="0" font-family="Arial,Arial_MSFontService,sans-serif" font-size="98.4512" x="75.9823" y="284.102">OPTIM</text><path d="M539.971 261.665C537.633 262.444 533.932 263.375 528.866 264.457 523.801 265.54 520.489 266.6 518.93 267.639 516.549 269.328 515.358 271.471 515.358 274.069 515.358 276.623 516.311 278.831 518.216 280.693 520.121 282.554 522.545 283.485 525.489 283.485 528.78 283.485 531.919 282.403 534.906 280.238 537.114 278.593 538.564 276.58 539.257 274.199 539.733 272.64 539.971 269.674 539.971 265.302ZM677.321 238.221C673.338 238.221 670.047 239.671 667.45 242.572 664.852 245.473 663.575 249.413 663.618 254.391L690.894 254.391C690.764 249.11 689.4 245.094 686.802 242.345 684.205 239.596 681.044 238.221 677.321 238.221ZM676.217 224.259C686.478 224.259 694.574 227.646 700.505 234.422 706.436 241.198 709.272 251.577 709.012 265.561L663.294 265.561C663.423 270.973 664.895 275.184 667.71 278.192 670.524 281.201 674.031 282.706 678.23 282.706 681.087 282.706 683.49 281.927 685.439 280.368 687.387 278.809 688.859 276.298 689.855 272.835L708.038 275.887C705.7 282.554 702.009 287.631 696.966 291.116 691.922 294.601 685.612 296.344 678.035 296.344 666.043 296.344 657.167 292.425 651.409 284.589 646.863 278.312 644.59 270.389 644.59 260.821 644.59 249.391 647.578 240.44 653.552 233.967 659.527 227.495 667.082 224.259 676.217 224.259ZM528.866 224.259C537.006 224.259 543.067 225.222 547.05 227.149 551.033 229.075 553.836 231.521 555.46 234.487 557.083 237.453 557.895 242.897 557.895 250.82L557.7 272.12C557.7 278.182 557.992 282.652 558.577 285.531 559.161 288.41 560.255 291.495 561.857 294.785L543.803 294.785C543.327 293.573 542.742 291.776 542.049 289.395 541.746 288.312 541.53 287.598 541.4 287.252 538.283 290.282 534.949 292.555 531.399 294.071 527.849 295.586 524.061 296.344 520.034 296.344 512.934 296.344 507.338 294.417 503.247 290.564 499.156 286.711 497.11 281.84 497.11 275.952 497.11 272.056 498.041 268.581 499.902 265.529 501.764 262.477 504.373 260.139 507.728 258.515 511.083 256.892 515.921 255.474 522.242 254.262 530.771 252.66 536.681 251.166 539.971 249.781L539.971 247.962C539.971 244.455 539.105 241.955 537.374 240.462 535.642 238.968 532.373 238.221 527.567 238.221 524.32 238.221 521.788 238.86 519.969 240.137 518.151 241.414 516.679 243.654 515.553 246.858L498.993 243.871C500.855 237.204 504.059 232.268 508.605 229.064 513.15 225.861 519.904 224.259 528.866 224.259ZM575.266 199.581 593.515 199.581 593.515 250.105 614.88 225.817 637.35 225.817 613.776 251.014 639.039 294.785 619.361 294.785 602.022 263.808 593.515 272.705 593.515 294.785 575.266 294.785Z" stroke="#2980B9" stroke-width="3" stroke-linejoin="round" stroke-miterlimit="10" fill="#FFFFFF" fill-rule="evenodd"/><text fill="#000000" fill-opacity="0" font-family="Arial,Arial_MSFontService,sans-serif" font-size="96.7627" x="497.11" y="284.248">ake</text></g></svg>